<?xml version="1.0" encoding="utf-8"?>
<!-- Generator: Adobe Illustrator 16.0.4, SVG Export Plug-In . SVG Version: 6.00 Build 0)  -->
<!DOCTYPE svg PUBLIC "-//W3C//DTD SVG 1.1//EN" "http://www.w3.org/Graphics/SVG/1.1/DTD/svg11.dtd">
<svg version="1.1" id="Layer_1" xmlns="http://www.w3.org/2000/svg" xmlns:xlink="http://www.w3.org/1999/xlink" x="0px" y="0px"
	 width="16px" height="16px" viewBox="0 0 16 16" enable-background="new 0 0 16 16" xml:space="preserve">
<path fill="#FFFFFF" d="M15.372,14.055L10.576,9.24c0.656-0.92,1.041-2.038,1.041-3.258c0-3.107-2.524-5.632-5.632-5.632
	c-3.107,0-5.632,2.525-5.632,5.632c0,3.108,2.525,5.631,5.632,5.631c1.22,0,2.328-0.385,3.258-1.041l4.814,4.797
	c0.179,0.188,0.423,0.281,0.657,0.281s0.487-0.084,0.657-0.281c0.365-0.367,0.365-0.959,0-1.324V14.055z M5.985,10.395
	c-2.431,0-4.412-1.982-4.412-4.413S3.555,1.57,5.985,1.57c2.431,0,4.412,1.981,4.412,4.412S8.417,10.395,5.985,10.395z"/>
</svg>
