<?xml version="1.0" encoding="UTF-8" standalone="no"?>
<svg width="255px" height="130px" viewBox="0 0 255 130" version="1.1" xmlns="http://www.w3.org/2000/svg" xmlns:xlink="http://www.w3.org/1999/xlink">
    <!-- Generator: Sketch 3.8.3 (29802) - http://www.bohemiancoding.com/sketch -->
    <title>Group@2x</title>
    <desc>Created with Sketch.</desc>
    <defs></defs>
    <g id="Page-1" stroke="none" stroke-width="1" fill="none" fill-rule="evenodd">
        <g id="Artboard-1-Copy-4" transform="translate(-87.000000, -77.000000)">
            <g id="Group" transform="translate(90.000000, 81.000000)">
                <path d="M66.1162,95.8457 C64.2922,104.5587 57.8312,110.2187 48.3312,110.2187 C35.9422,110.2187 29.6342,99.4937 29.6342,88.4727 C29.6342,77.3737 35.8662,66.7247 48.3312,66.7247 C57.8312,66.7247 64.2922,72.3847 66.1162,81.0977 L55.9312,82.8107 C55.0952,78.8647 54.0312,74.8417 48.3312,74.8417 C42.2512,74.8417 41.1862,83.2577 41.1862,88.4727 C41.1862,93.6857 42.2512,102.1017 48.3312,102.1017 C54.0312,102.1017 55.0952,98.0787 55.9312,94.0587 L66.1162,95.8457 Z" id="Fill-1" fill="#FFFFFF"></path>
                <path d="M90.207,79.8321 C89.675,76.9281 88.687,74.8431 85.343,74.8431 C82.683,74.8431 80.782,76.7781 80.782,79.4591 C80.782,86.6091 101.379,81.3951 101.379,97.0371 C101.379,105.8991 93.855,110.2201 85.19,110.2201 C76.45,110.2201 70.902,106.0491 69.762,97.4101 L80.326,96.2931 C80.554,99.2701 82.15,102.1021 85.571,102.1021 C88.383,102.1021 91.043,100.8361 91.043,97.6331 C91.043,90.3341 70.446,96.2931 70.446,80.0571 C70.446,71.6411 77.818,66.7251 86.103,66.7251 C93.551,66.7251 99.555,71.3431 100.848,78.5651 L90.207,79.8321 Z" id="Fill-3" fill="#FFFFFF"></path>
                <path d="M118.0986,71.9375 C121.6716,69.0335 126.0796,66.7245 130.7916,66.7245 C135.4276,66.7245 141.9646,69.4805 141.9646,79.7575 L141.9646,109.3265 L130.7156,109.3265 L130.7156,84.2265 C130.7156,80.8755 130.9446,75.5865 126.0796,75.5865 C122.8106,75.5865 120.2266,77.8965 118.0986,80.1295 L118.0986,109.3265 L106.8496,109.3265 L106.8496,67.6185 L118.0986,67.6185 L118.0986,71.9375 Z" id="Fill-5" fill="#FFFFFF"></path>
                <path d="M167.6504,112.6778 C164.9154,120.2748 162.1784,124.6678 153.2104,124.6678 C150.7784,124.6678 148.3454,124.3698 145.9894,123.8488 L145.9894,114.3908 C147.6624,114.9868 149.0294,115.4338 150.8534,115.4338 C155.9464,115.4338 157.7704,112.6038 159.1384,108.2818 L143.9374,67.6168 L156.0984,67.6168 L164.6864,95.0998 L172.5144,67.6168 L184.0674,67.6168 L167.6504,112.6778 Z" id="Fill-7" fill="#FFFFFF"></path>
                <path d="M219.4844,95.8457 C217.6604,104.5587 211.2004,110.2187 201.6994,110.2187 C189.3104,110.2187 183.0024,99.4937 183.0024,88.4727 C183.0024,77.3737 189.2344,66.7247 201.6994,66.7247 C211.2004,66.7247 217.6604,72.3847 219.4844,81.0977 L209.2994,82.8107 C208.4634,78.8647 207.3994,74.8417 201.6994,74.8417 C195.6194,74.8417 194.5544,83.2577 194.5544,88.4727 C194.5544,93.6857 195.6194,102.1017 201.6994,102.1017 C207.3994,102.1017 208.4634,98.0787 209.2994,94.0587 L219.4844,95.8457 Z" id="Fill-9" fill="#FFFFFF"></path>
                <polyline id="Stroke-11" stroke="#E90B8B" stroke-width="5" points="8.1719 108.1641 20.1019 108.1641 20.1019 30.3321 57.4409 30.3321 57.4409 40.3691"></polyline>
                <polyline id="Stroke-13" stroke="#F79420" stroke-width="5" points="69.9458 55.7657 69.9458 18.9927 116.2308 0.6777 116.2308 44.9757"></polyline>
                <polyline id="Stroke-15" stroke="#8DC540" stroke-width="5" points="129.8613 59.7403 129.8613 28.2213 174.8683 28.2213 174.8683 50.3703"></polyline>
                <polyline id="Stroke-17" stroke="#0E76BC" stroke-width="5" points="187.6465 63.8584 187.6465 34.6104 199.2885 34.6104 199.2885 17.2894 225.9805 17.2894 225.9805 108.1644 240.7465 108.1644"></polyline>
                <path d="M0.5,108.1641 C0.5,106.0191 2.238,104.2821 4.382,104.2821 C6.526,104.2821 8.265,106.0191 8.265,108.1641 C8.265,110.3091 6.526,112.0461 4.382,112.0461 C2.238,112.0461 0.5,110.3091 0.5,108.1641 L0.5,108.1641 Z" id="Stroke-19" stroke="#E8118B" stroke-width="3"></path>
                <path d="M53.5,44.1641 C53.5,42.0201 55.238,40.2821 57.382,40.2821 C59.526,40.2821 61.265,42.0201 61.265,44.1641 C61.265,46.3091 59.526,48.0461 57.382,48.0461 C55.238,48.0461 53.5,46.3091 53.5,44.1641 L53.5,44.1641 Z" id="Stroke-21" stroke="#E8118B" stroke-width="3"></path>
                <path d="M66.0635,58.8438 C66.0635,56.6998 67.8015,54.9628 69.9455,54.9628 C72.0895,54.9628 73.8285,56.6998 73.8285,58.8438 C73.8285,60.9888 72.0895,62.7268 69.9455,62.7268 C67.8015,62.7268 66.0635,60.9888 66.0635,58.8438 L66.0635,58.8438 Z" id="Stroke-23" stroke="#F79521" stroke-width="3"></path>
                <path d="M112.3486,49.0469 C112.3486,46.9019 114.0866,45.1649 116.2306,45.1649 C118.3746,45.1649 120.1136,46.9019 120.1136,49.0469 C120.1136,51.1909 118.3746,52.9289 116.2306,52.9289 C114.0866,52.9289 112.3486,51.1909 112.3486,49.0469 L112.3486,49.0469 Z" id="Stroke-25" stroke="#F79521" stroke-width="3"></path>
                <path d="M170.9863,53.4971 C170.9863,51.3531 172.7233,49.6151 174.8683,49.6151 C177.0113,49.6151 178.7513,51.3531 178.7513,53.4971 C178.7513,55.6421 177.0113,57.3791 174.8683,57.3791 C172.7233,57.3791 170.9863,55.6421 170.9863,53.4971 L170.9863,53.4971 Z" id="Stroke-27" stroke="#8EC540" stroke-width="3"></path>
                <path d="M240.7461,108.1641 C240.7461,106.0191 242.4841,104.2821 244.6291,104.2821 C246.7721,104.2821 248.5121,106.0191 248.5121,108.1641 C248.5121,110.3091 246.7721,112.0461 244.6291,112.0461 C242.4841,112.0461 240.7461,110.3091 240.7461,108.1641 L240.7461,108.1641 Z" id="Stroke-29" stroke="#0E76BC" stroke-width="3"></path>
            </g>
        </g>
    </g>
</svg>